<svg width="292" height="40" viewBox="0 0 292 40" fill="none" xmlns="http://www.w3.org/2000/svg">
<g clip-path="url(#clip0_29_4362)">
<rect width="40" height="40" rx="8" fill="black" fill-opacity="0.06"/>
<path d="M20.0682 16.11H17.9402V14.878H21.3842V25H20.0682V16.11Z" fill="black"/>
</g>
<g clip-path="url(#clip1_29_4362)">
<path d="M65.4496 24.986L58.6176 25V23.95L61.8796 21.136C63.5176 19.722 63.9796 19.036 63.9796 17.958C63.9796 16.684 63.2516 15.928 62.0336 15.928C60.7876 15.928 59.9756 16.838 59.9476 18.28H58.5756C58.6176 16.11 59.9896 14.696 62.0476 14.696C64.0776 14.696 65.3796 15.928 65.3796 17.874C65.3796 19.316 64.6656 20.338 62.8736 21.892L60.7736 23.712H65.4496V24.986Z" fill="black" fill-opacity="0.5"/>
</g>
<g clip-path="url(#clip2_29_4362)">
<path d="M103.605 19.764H102.597V18.854L105.467 16.096H100.917V14.878H107.203V15.984L104.431 18.63C106.153 18.84 107.455 20.002 107.455 21.822C107.455 23.866 105.915 25.168 103.857 25.168C101.869 25.168 100.441 23.95 100.441 21.85H101.799C101.799 23.166 102.611 23.936 103.885 23.936C105.201 23.936 106.055 23.096 106.055 21.794C106.055 20.576 105.215 19.764 103.605 19.764Z" fill="black" fill-opacity="0.5"/>
</g>
<g clip-path="url(#clip3_29_4362)">
<path d="M142.128 25.168C141.582 25.168 141.12 24.72 141.12 24.188C141.12 23.642 141.582 23.194 142.128 23.194C142.66 23.194 143.122 23.642 143.122 24.188C143.122 24.72 142.66 25.168 142.128 25.168ZM145.997 25.168C145.451 25.168 144.989 24.72 144.989 24.188C144.989 23.642 145.451 23.194 145.997 23.194C146.529 23.194 146.991 23.642 146.991 24.188C146.991 24.72 146.529 25.168 145.997 25.168ZM149.867 25.168C149.321 25.168 148.859 24.72 148.859 24.188C148.859 23.642 149.321 23.194 149.867 23.194C150.399 23.194 150.861 23.642 150.861 24.188C150.861 24.72 150.399 25.168 149.867 25.168Z" fill="black" fill-opacity="0.5"/>
</g>
<g clip-path="url(#clip4_29_4362)">
<path d="M184.283 22.186C184.283 20.968 184.997 19.988 186.117 19.582C185.165 19.176 184.647 18.378 184.647 17.356C184.647 15.774 186.005 14.696 188.021 14.696C190.009 14.696 191.353 15.774 191.353 17.37C191.353 18.406 190.821 19.204 189.869 19.582C191.003 19.946 191.731 20.954 191.731 22.2C191.731 23.978 190.247 25.168 188.007 25.168C185.753 25.168 184.283 23.978 184.283 22.186ZM185.907 17.44C185.907 18.434 186.733 19.078 187.993 19.078C189.267 19.078 190.065 18.448 190.065 17.468C190.065 16.502 189.267 15.886 187.993 15.886C186.733 15.886 185.907 16.502 185.907 17.44ZM185.627 22.088C185.627 23.222 186.565 23.95 188.007 23.95C189.435 23.95 190.373 23.222 190.373 22.088C190.373 20.968 189.449 20.254 187.993 20.254C186.551 20.254 185.627 20.968 185.627 22.088Z" fill="black" fill-opacity="0.5"/>
</g>
<g clip-path="url(#clip5_29_4362)">
<path d="M232.301 21.794L229.935 25H228.339L230.873 21.64C230.523 21.78 230.159 21.85 229.809 21.85C227.709 21.85 226.295 20.338 226.295 18.322C226.295 16.222 227.891 14.696 229.977 14.696C232.077 14.696 233.701 16.278 233.701 18.336C233.701 19.526 233.337 20.38 232.301 21.794ZM232.301 18.322C232.301 16.936 231.349 15.928 229.977 15.928C228.633 15.928 227.681 16.936 227.681 18.322C227.681 19.708 228.633 20.688 229.977 20.688C231.349 20.688 232.301 19.708 232.301 18.322Z" fill="black" fill-opacity="0.5"/>
</g>
<g clip-path="url(#clip6_29_4362)">
<path d="M267.215 16.11H265.087V14.878H268.531V25H267.215V16.11ZM270.382 19.946C270.382 16.81 272.006 14.682 274.554 14.682C277.088 14.682 278.712 16.81 278.712 19.946C278.712 23.096 277.158 25.182 274.554 25.182C271.936 25.182 270.382 23.096 270.382 19.946ZM271.74 19.946C271.74 22.438 272.776 23.95 274.554 23.95C276.332 23.95 277.354 22.438 277.354 19.946C277.354 17.426 276.332 15.914 274.554 15.914C272.776 15.914 271.74 17.426 271.74 19.946Z" fill="black" fill-opacity="0.5"/>
</g>
<defs>
<clipPath id="clip0_29_4362">
<rect width="40" height="40" rx="8" fill="white"/>
</clipPath>
<clipPath id="clip1_29_4362">
<rect x="42" width="40" height="40" rx="8" fill="white"/>
</clipPath>
<clipPath id="clip2_29_4362">
<rect x="84" width="40" height="40" rx="8" fill="white"/>
</clipPath>
<clipPath id="clip3_29_4362">
<rect x="126" width="40" height="40" rx="8" fill="white"/>
</clipPath>
<clipPath id="clip4_29_4362">
<rect x="168" width="40" height="40" rx="8" fill="white"/>
</clipPath>
<clipPath id="clip5_29_4362">
<rect x="210" width="40" height="40" rx="8" fill="white"/>
</clipPath>
<clipPath id="clip6_29_4362">
<rect x="252" width="40" height="40" rx="8" fill="white"/>
</clipPath>
</defs>
</svg>
